<?xml version="1.0" encoding="UTF-8"?><svg id="_ар_1" xmlns="http://www.w3.org/2000/svg" viewBox="0 0 360.46 351.04"><defs><style>.cls-1{fill:#492300;}</style></defs><path class="cls-1" d="M.02,6.48C2.07,1.68,5.72-.13,10.89,0c8.09,.23,16.2,.02,24.3,.07,17.85,.12,31.73,10.11,37.54,27.04,2.13,6.21,4.25,12.42,6.11,18.71,.73,2.47,1.93,3.18,4.42,3.21,26.88,.3,53.77,.73,80.65,1.11,61.98,.88,123.97,1.72,185.95,2.73,2.74,.04,5.95,1,8.01,2.67,1.63,1.32,2.96,4.66,2.49,6.65-6.87,29.45-13.58,58.95-21.36,88.16-4.93,18.49-21.19,30.41-40.22,32.31-32.81,3.28-65.58,6.87-98.37,10.29-23.57,2.46-47.14,4.98-70.74,7.21-3.99,.38-5.99,1.84-7.67,5.5-7.15,15.64,2.84,33.05,21.39,32.92,52.01-.38,104.02-.14,156.03-.12,1.75,0,3.53,.08,5.24,.38,4.4,.78,7.06,4.09,6.9,8.37-.15,4.06-3.02,7.23-7.21,7.84-1.15,.17-2.34,.15-3.51,.15-52.72,0-105.43,.03-158.15,0-29.25-.02-48.14-28.66-36.42-55.5,2.38-5.45,2.87-10.13,.9-15.96-16.86-49.97-33.35-100.05-49.97-150.1-3.87-11.65-11.06-16.83-23.36-16.85-7.63-.01-15.26-.11-22.89,.03-5.24,.09-9.14-1.62-10.95-6.84v-3.52H.02Zm341.83,63.01c-85.71-1.26-170.85-2.5-256.24-3.76,.22,1.04,.29,1.62,.47,2.17,12.44,37.73,24.9,75.45,37.29,113.2,.7,2.13,1.74,2.57,3.83,2.34,13.41-1.47,26.84-2.83,40.26-4.22,43.18-4.47,86.37-8.93,129.55-13.4,14.85-1.54,23.6-9.17,27.2-23.78,3.28-13.31,6.51-26.64,9.75-39.97,2.6-10.68,5.18-21.37,7.9-32.57h-.01Z"/><path class="cls-1" d="M114.99,351.04c-20.77-.04-37.56-16.91-37.52-37.69,.05-20.66,17.11-37.68,37.69-37.6,20.57,.08,37.69,17.28,37.6,37.78-.09,20.67-17.09,37.55-37.78,37.51h.01Zm-20.73-37.53c.04,11.52,9.28,20.74,20.8,20.75,11.46,.01,20.84-9.29,20.91-20.72,.07-11.52-9.54-21.1-21.05-21-11.45,.1-20.69,9.49-20.65,20.96h-.01Z"/><path class="cls-1" d="M236.5,313.38c.03-20.69,17.03-37.69,37.64-37.64,20.67,.05,37.6,17.07,37.54,37.75-.06,20.83-16.85,37.57-37.65,37.54-20.8-.03-37.56-16.84-37.53-37.65h0Zm37.67,20.87c11.46-.05,20.84-9.41,20.85-20.82,.01-11.3-9.49-20.83-20.84-20.9-11.48-.06-21.21,9.69-21.01,21.06,.2,11.52,9.54,20.71,21,20.65h0Z"/></svg>