<?xml version="1.0" encoding="UTF-8"?><svg id="_ар_1" xmlns="http://www.w3.org/2000/svg" viewBox="0 0 409.03 409"><defs><style>.cls-1{fill:#492300;}</style></defs><path class="cls-1" d="M409.03,103.13v202.85c-.66,4.31-1.06,8.67-2.02,12.91-10.23,45.17-37.61,74.21-82.22,86.73-6.09,1.71-12.5,2.28-18.77,3.38H103.22c-1.3-.23-2.59-.54-3.9-.67-11.06-1.14-21.87-3.6-31.88-8.32C24.12,379.56,.98,345.26,.4,297.33c-.75-61.88-.21-123.78-.17-185.67,.01-19.39,4.22-37.87,14.09-54.6C36.41,19.59,69.51,.41,112.99,.18,174.07-.14,235.15,.03,296.23,.18c7.68,.02,15.54,.43,22.99,2.1,45.08,10.08,73.97,37.59,86.44,82.09,1.71,6.08,2.28,12.49,3.37,18.74v.02Zm-23.95,101.41c0-30.47,.12-60.95-.09-91.42-.05-6.87-.47-13.92-2.02-20.58-9.64-41.43-43.69-68.39-86.15-68.44-61.47-.07-122.94-.08-184.41,.07-6.61,.02-13.37,.51-19.78,2.01C51.2,35.83,24.25,69.87,24.2,112.34c-.07,61.48-.07,122.96,.06,184.44,.01,6.48,.49,13.1,1.88,19.41,8.99,40.85,43.53,68.69,85.49,68.8,62,.16,124,.05,186.01,.03,12.52,0,24.7-2.16,35.98-7.65,33.56-16.32,50.86-43.36,51.37-80.63,.42-30.74,.09-61.48,.09-92.22v.02Z"/><path class="cls-1" d="M316.4,204.7c-.17,61.53-50.58,111.82-111.92,111.65-61.52-.17-111.8-50.59-111.63-111.94,.17-61.53,50.58-111.82,111.92-111.65,61.52,.17,111.8,50.59,111.63,111.94h0Zm-111.89,87.68c48.25,.11,87.9-39.49,87.92-87.81,.02-48.15-39.22-87.54-87.49-87.84-48.16-.3-87.92,39.22-88.12,87.61-.2,48.22,39.35,87.92,87.69,88.04h0Z"/><path class="cls-1" d="M285.77,85.55c-.13-17.9,14.74-32.91,32.82-33.14,17.77-.22,32.92,14.76,33.17,32.82,.25,17.75-14.84,32.96-32.85,33.12-17.94,.16-33.01-14.76-33.14-32.8h0Zm48.98-.37c.14-8.32-7.2-15.66-15.92-15.92-8.59-.25-16.35,6.77-16.74,15.16-.4,8.5,7.39,16.29,16.3,16.32,8.62,.03,16.22-7.2,16.36-15.56Z"/></svg>