<?xml version="1.0" encoding="UTF-8"?><svg id="_ар_1" xmlns="http://www.w3.org/2000/svg" viewBox="0 0 44.85 13.72"><defs><style>.cls-1{fill:#7a3b00;}.cls-2{fill:#f9c900;}.cls-3{fill:#f9d22d;}</style></defs><path class="cls-1" d="M34.89,7.32c1.58,0,2.68,1.2,4.12,1.33,1.41,.11,2.94,.07,3.9-.95,.97-.9,1.5-2.33,1.08-3.63-.41-1.15-1.05-2.61-2.37-2.94-2.86-.78-5.12,1.77-7.62,2.89-2.72,1.24-5.74,2.27-8.77,1.55-1.27-.29-3.37-1.85-2.13-3.24,1.91-1.32,4.99,.57,5.03,2.8-.53,3.29-6.18,3.85-8.86,3.47-2.92-.51-5.22-2.8-8.23-2.83-2.85-.05-3.36,2.68-1.68,4.58-1.74-1.88-1.2-4.71,1.68-4.73,3.7-.03,6.65,3.23,10.43,2.61,2.02-.27,4.41-.55,5.72-2.27,.42-.53,.38-1.16,.06-1.71-.66-1.07-2.05-1.91-3.33-1.52-.46,.15-.53,.37-.37,.77,1.25,1.94,4,1.58,6.01,1.13,1.38-.34,2.72-.85,4-1.47,1.96-.9,3.69-2.58,5.93-3.05,1.57-.32,3.51,.18,4.31,1.68,1.4,2.01,1.52,4.71-.52,6.38-1.16,1.09-2.87,1.12-4.35,.92-.65-.02-1.5-.53-2.07-.86-.63-.34-1.3-.63-2.01-.68v-.21h0Z"/><path d="M.42,13.72h-.42V4.69H5.67v.4H.42V13.72Zm-.07-4.5H5.11v.39H.35v-.39Z"/><path d="M6.12,13.72V4.68h.41V13.72h-.41Z"/><path d="M17.32,8c-.05-.02-.16-.06-.17-.07l-2.05,5.25-2.24-5.86h-.39l2.46,6.33h.36l2.2-5.59"/><path d="M17.69,8.15c-.05-.01-.14-.06-.21-.08l2.18,5.51h.38l2.44-6.33h-.39l-2.25,5.86-1.93-4.88"/><path d="M25.13,7.46s.29-.13,.38-.18c-.53,.02-1.12,.19-1.54,.45-.46,.28-.81,.65-1.07,1.13-.26,.48-.39,1.03-.39,1.66s.14,1.17,.42,1.66c.28,.49,.66,.87,1.15,1.14,.49,.27,1.04,.41,1.68,.41,.47,0,.91-.09,1.33-.26,.41-.17,.77-.43,1.06-.77l-.26-.27c-.25,.32-.56,.55-.93,.71-.37,.15-.77,.23-1.19,.23-.55,0-1.04-.12-1.47-.36-.43-.24-.76-.57-1.01-1-.24-.41-.36-.89-.36-1.42h5.61v-.11c0-.62-.13-1.16-.39-1.64-.26-.48-.61-.85-1.07-1.11-.25-.14-.34-.16-.64-.27-.3,.19-.07,.04-.38,.23,.16,.06,.69,.28,.83,.37,.39,.24,.71,.57,.93,.99,.2,.36,.29,.78,.32,1.22h-5.19c.03-.45,.12-.86,.32-1.22,.19-.36,.31-.65,.62-.94,.24-.21,.33-.28,.55-.38,.27-.07,.18-.05,.32-.09,.18-.05,.19-.07,.35-.14"/><path d="M28.99,13.72V7.4h.39v1.74l-.04-.11c.17-.53,.48-.94,.91-1.24,.43-.3,.97-.44,1.62-.44v.4h-.11c-.74,0-1.32,.23-1.74,.69-.42,.46-.63,1.1-.63,1.91v3.36h-.41Z"/><path class="cls-1" d="M34.64,13.72c-.53,0-1.05,0-1.48-.24-1.2-.66-.36-1.78-.21-1.76h0c-.21,.04-.68,.87,.15,1.4,.36,.23,1.04,.27,1.55,.24,.72-.04,1.23-.12,1.55-.36,.32-.24,.48-.56,.48-.95,0-.28-.08-.51-.23-.67-.16-.16-.36-.29-.62-.38-.26-.09-.54-.16-.85-.21-.31-.05-.62-.11-.93-.18s-.6-.16-.85-.28c-.26-.12-.46-.28-.62-.49-.16-.21-.24-.49-.24-.84,0-.3,.08-.58,.25-.83s.43-.46,.77-.62c.35-.16,.7-.23,1.24-.23,.39,0,.64,0,1.03,.16,.42,.17,.6,.32,.98,.43l-.06,.08c-.43-.28-.82-.35-1.12-.38-.37-.04-.52-.03-.92-.01-.67,.02-.99,.21-1.3,.46s-.46,.56-.46,.93c0,.29,.08,.53,.24,.7,.16,.17,.36,.31,.62,.4,.26,.09,.54,.16,.85,.22s.62,.12,.93,.18c.31,.06,.59,.15,.85,.27,.26,.11,.46,.27,.62,.48,.16,.2,.23,.48,.23,.83,0,.32-.09,.62-.28,.87-.19,.26-.46,.45-.81,.59-.36,.14-.81,.21-1.35,.21Z"/><path d="M17.69,7.47h-.37l-.04,.11c.13,.05,.09,.04,.32,.12l.07,.02,.05,.02c.09,.03-.07-.02,.08,.03"/><ellipse class="cls-2" cx="11.2" cy="13.71" rx=".02" ry="0"/><path class="cls-3" d="M12.86,11.5c-.15,.34-.39,.62-.59,.93-.1,.17-.25,.3-.41,.41-.32,.21-.66,.21-.97,0-.03-.02-.06-.04-.09-.06l-.04,.16c-.09,.42-.35,.68-.78,.76-.1,.02-.2,.03-.3,.03-.44,0-.86-.1-1.25-.32-.24-.14-.43-.32-.51-.6-.05-.18-.04-.35,0-.53,0-.04,.02-.07,.03-.12-.03,0-.05,0-.07,.01-.42,.08-.76-.07-.96-.45-.1-.19-.16-.39-.19-.6-.04-.21-.07-.43-.11-.64-.04-.28-.01-.55,.15-.8,.19-.3,.47-.42,.81-.42,.03,0,.06,0,.1,0-.01-.03-.02-.05-.03-.07-.13-.24-.19-.49-.12-.76,.05-.17,.14-.32,.28-.44,.42-.38,.91-.61,1.48-.66,.47-.04,.81,.19,.99,.63,.02,.04,.03,.09,.05,.14l.05-.05c.19-.19,.41-.33,.68-.34,.2,0,.39,.05,.56,.15,.46,.28,.8,.66,1.02,1.15,.15,.34,.13,.68-.11,.98-.03,.04-.07,.06-.12,.05-.08-.02-.1-.1-.06-.17,.04-.07,.09-.13,.12-.2,.07-.17,.06-.34,0-.51-.08-.24-.23-.45-.4-.64-.18-.2-.37-.39-.62-.51-.31-.15-.6-.11-.85,.12-.07,.07-.13,.14-.19,.22-.02,.02-.02,.05-.02,.08,.05,.46,0,.91-.13,1.36-.02,.06-.04,.11-.05,.17,0,.02,0,.04,0,.05h.02l.05-.04c.16-.16,.35-.28,.56-.36,.08-.03,.14-.01,.17,.05,.02,.06,0,.12-.08,.15-.19,.08-.37,.19-.52,.34-.03,.03-.03,.05-.02,.08,.06,.13,.07,.27,.04,.41,.11,.05,.23,.09,.33,.14,.13,.06,.25,.13,.37,.2,.07,.04,.09,.1,.05,.16-.03,.06-.1,.07-.17,.03-.2-.12-.41-.22-.63-.3-.03,0-.05-.02-.08,.01-.03,.03-.01,.06,0,.08,.24,.43,.41,.89,.46,1.38,.01,.11,.06,.18,.13,.24,.18,.15,.38,.23,.62,.17,.16-.04,.3-.14,.41-.27,.12-.14,.23-.3,.34-.45,.07-.1,.14-.2,.21-.3,.14-.19,.23-.4,.21-.65-.03-.31-.21-.5-.49-.62-.35-.14-.72-.18-1.09-.17-.08,0-.16,0-.24,.01-.06,0-.11-.04-.12-.1,0-.06,.03-.11,.09-.12,.5-.04,1-.02,1.47,.19,.37,.16,.6,.45,.58,.95,0,.01,0,.02,0,.03l-.05,.22Zm-3.59-1.31h-.01c-.29-.21-.6-.38-.94-.5-.26-.09-.52-.15-.79-.14-.29,.01-.5,.16-.62,.42-.09,.18-.09,.37-.06,.57,.03,.2,.06,.41,.1,.61,.04,.17,.08,.33,.15,.49,.06,.16,.18,.29,.34,.36,.21,.09,.42,.05,.63-.04,.02,0,.03-.03,.04-.04,.17-.31,.4-.58,.67-.83,.05-.05,.12-.05,.16,0,.05,.05,.04,.11-.01,.17-.05,.05-.11,.1-.16,.16-.25,.25-.46,.53-.59,.86-.15,.39-.04,.75,.31,.98,.2,.14,.44,.21,.67,.26,.26,.06,.52,.09,.78,.05,.27-.05,.48-.19,.59-.45,.06-.15,.07-.3,.07-.45-.01-.42-.13-.81-.29-1.18-.05-.12-.11-.23-.16-.34-.07,.02-.13,.05-.19,.06-.06,0-.07,.04-.08,.09-.02,.25,0,.49,.07,.73,.03,.08,0,.14-.06,.16-.06,.02-.12-.01-.14-.09-.03-.16-.06-.33-.09-.49-.01-.07,0-.14,0-.21-.05,.1-.1,.2-.15,.29-.07,.11-.16,.22-.24,.32-.04,.05-.11,.05-.15,.01-.04-.04-.05-.1,0-.15,.01-.01,.02-.03,.03-.04,.17-.19,.28-.4,.36-.64,.01-.03,0-.05-.02-.07-.14-.09-.22-.22-.26-.38,0-.03-.02-.05-.06-.05-.12,0-.24-.02-.35-.01-.13,0-.25,.02-.38,.03-.06,0-.1-.02-.11-.08-.02-.05,0-.1,.05-.12,.02-.01,.05-.02,.07-.02,.24-.03,.48-.04,.72-.01,.02,0,.05-.01,.06-.03,.03-.07,.06-.15,.09-.23Zm.73-.24v-.03c.12-.34,.18-.69,.19-1.05,0-.27-.02-.53-.12-.78-.13-.34-.39-.5-.75-.49-.3,.01-.57,.12-.84,.24-.21,.1-.41,.22-.57,.4-.21,.24-.26,.5-.13,.8,.04,.1,.1,.19,.16,.27,.02,.02,.05,.04,.08,.05,.1,.03,.2,.05,.3,.08,.39,.13,.75,.32,1.08,.56,.06,.04,.09-.02,.13-.03,.01,0,.02-.04,.02-.06-.03-.27-.13-.51-.28-.73-.01-.02-.03-.03-.03-.05-.02-.05-.01-.1,.03-.13,.05-.03,.09-.03,.14,0,.02,.01,.03,.03,.04,.05,.17,.24,.28,.51,.33,.81,0,.02,.02,.05,.03,.05,.06,.01,.13,.02,.2,.03Zm-.61,.52c-.05,.23,.09,.45,.32,.5,.23,.05,.46-.1,.51-.32,.05-.22-.1-.45-.32-.5-.23-.05-.45,.09-.5,.32Z"/></svg>