<?xml version="1.0" encoding="UTF-8"?><svg id="_ар_1" xmlns="http://www.w3.org/2000/svg" viewBox="0 0 381.46 66.45"><defs><style>.cls-1{fill:#7865ad;}</style></defs><path class="cls-1" d="M68.97,27.26c-.36,.56-.96,1.93-1.94,2.94-3.29,3.41-6.61,6.81-10.14,9.97-2.17,1.94-2.5,4.09-2.02,6.71,.86,4.64,1.83,9.28,2.35,13.97,.17,1.48-.49,3.66-1.56,4.51-1.04,.83-3.37,.97-4.67,.38-4.65-2.1-9-4.86-13.67-6.9-1.66-.73-4.17-.75-5.83-.03-4.45,1.92-8.57,4.61-13,6.58-1.57,.7-4.2,.94-5.36,.06-1.18-.89-1.73-3.46-1.54-5.19,.52-4.81,1.8-9.54,2.3-14.35,.18-1.7-.56-3.96-1.7-5.24-3.22-3.63-7.01-6.76-10.25-10.37-1.17-1.3-2.29-3.7-1.84-5.1,.45-1.42,2.72-2.8,4.43-3.18,4.11-.93,8.34-1.4,12.55-1.79,3.38-.31,5.72-1.44,7.07-4.91,1.57-4.05,3.59-7.96,5.83-11.69,.91-1.52,2.91-3.3,4.41-3.29,1.49,.01,3.45,1.83,4.35,3.36,2.33,3.97,4.39,8.13,6.18,12.38,1.15,2.73,3.13,3.64,5.72,3.98,4.32,.57,8.65,1.04,12.94,1.74,2.59,.43,5.34,.96,5.41,5.45Z"/><path class="cls-1" d="M245.45,61.45c.79-4.65,1.4-9.72,2.57-14.67,.71-2.99-.06-4.96-2.2-6.92-3.49-3.2-6.89-6.51-10.17-9.93-3.37-3.5-2.38-6.85,2.4-7.82,4.38-.89,8.84-1.42,13.28-1.92,3.17-.36,5.53-1.32,6.87-4.65,1.72-4.26,3.94-8.33,6.09-12.4,2.17-4.11,6.06-4.22,8.31-.16,2.35,4.25,4.55,8.6,6.49,13.04,1.09,2.51,2.78,3.61,5.31,3.94,4.19,.54,8.43,.9,12.54,1.82,2.12,.47,4.68,1.53,5.81,3.17,1.59,2.3-.53,4.35-2.29,6.04-2.97,2.85-5.7,5.99-8.9,8.54-2.84,2.25-3.03,4.8-2.43,7.92,.81,4.27,1.69,8.56,2.08,12.88,.16,1.72-.39,4.27-1.57,5.11-1.18,.84-3.76,.51-5.35-.17-3.99-1.72-7.89-3.74-11.6-6.03-2.93-1.81-5.38-1.74-8.3,0-4.06,2.43-8.29,4.58-12.56,6.63-3.42,1.65-6.28-.28-6.37-4.42Z"/><path class="cls-1" d="M88.96,61.81c.82-4.68,1.53-9.48,2.52-14.22,.72-3.45,.27-6.14-2.72-8.54-3.29-2.64-6.31-5.69-9.09-8.87-1.15-1.32-2.34-3.85-1.81-5.08,.68-1.55,2.98-2.92,4.81-3.33,4.1-.92,8.34-1.3,12.54-1.73,3.09-.32,5.26-1.43,6.54-4.55,1.65-4.02,3.6-7.97,5.84-11.69,.98-1.62,3.01-3.61,4.55-3.6,1.54,.01,3.52,2.05,4.49,3.68,2.28,3.84,4.28,7.89,6.01,12.01,1.14,2.73,3.09,3.64,5.68,3.99,4.07,.55,8.14,1.06,12.19,1.71,1.57,.25,3.27,.56,4.59,1.36,2.43,1.48,2.46,4.2,.06,6.68-3.46,3.58-7.03,7.08-10.69,10.46-1.96,1.81-2.5,3.67-1.9,6.31,1.05,4.6,1.94,9.26,2.4,13.95,.17,1.71-.61,4.14-1.85,5.15-1.01,.81-3.57,.47-5.05-.21-4.42-2.01-8.69-4.35-12.92-6.73-2.22-1.25-4.08-1.11-6.28,.12-4.45,2.5-8.99,4.85-13.59,7.07-3.09,1.48-6.29-.59-6.32-3.95Z"/><path class="cls-1" d="M326.66,43.92c-.46-.76-1.01-2.15-1.96-3.14-3.47-3.58-7.12-6.98-10.61-10.54-3.44-3.51-2.42-7.18,2.38-8.15,4.25-.86,8.59-1.4,12.91-1.83,3.34-.33,5.78-1.36,7.16-4.81,1.61-4.04,3.6-7.96,5.83-11.7,.91-1.53,2.85-3.36,4.34-3.38,1.5-.02,3.53,1.75,4.42,3.27,2.27,3.85,4.22,7.92,5.94,12.05,1.22,2.92,3.22,4.15,6.19,4.47,4.2,.45,8.43,.85,12.55,1.73,1.88,.4,4.2,1.48,5.12,2.98,1.44,2.33-.4,4.4-2.2,6.12-3.25,3.1-6.35,6.35-9.66,9.38-1.87,1.71-2.4,3.55-1.9,5.99,.96,4.75,1.93,9.51,2.46,14.32,.18,1.59-.53,3.95-1.69,4.82-1.11,.83-3.57,.71-5.02,.06-4.42-1.98-8.71-4.31-12.92-6.72-2.34-1.34-4.32-1.24-6.63,.07-4.22,2.4-8.5,4.74-12.93,6.7-1.42,.63-3.92,.6-5-.27-1.11-.89-1.64-3.25-1.46-4.86,.61-5.3,1.65-10.55,2.66-16.57Zm19.95-29.74c-1.85,3.69-3.25,6.3-4.49,8.98-1.31,2.85-3.24,4.48-6.54,4.73-3.01,.22-5.97,1.01-9.52,1.65,3.44,3.91,7.65,6.81,8.91,10.68,1.26,3.85-.42,8.66-.89,13.89,3.49-1.77,6.37-3.12,9.15-4.67,2.39-1.33,4.59-1.45,7.02-.02,2.75,1.62,5.66,2.95,9.41,4.88-.51-3.83-.59-6.8-1.34-9.58-.95-3.51,.06-6,2.67-8.27,2.2-1.91,4.17-4.07,6.96-6.82-2.68-.51-4.21-1.02-5.76-1.07-5.99-.19-10.56-2.23-12.45-8.49-.52-1.71-1.69-3.23-3.12-5.88Z"/><path class="cls-1" d="M166.93,61.81c.82-4.68,1.53-9.48,2.52-14.22,.72-3.45,.27-6.14-2.72-8.54-3.29-2.64-6.31-5.69-9.09-8.87-1.15-1.32-2.34-3.85-1.81-5.08,.68-1.55,2.98-2.92,4.81-3.33,4.1-.92,8.34-1.3,12.54-1.73,3.09-.32,5.26-1.43,6.54-4.55,1.65-4.02,3.6-7.97,5.84-11.69,.98-1.62,3.01-3.61,4.55-3.6,1.54,.01,3.52,2.05,4.49,3.68,2.28,3.84,4.28,7.89,6.01,12.01,1.14,2.73,3.09,3.64,5.68,3.99,4.07,.55,8.14,1.06,12.19,1.71,1.57,.25,3.27,.56,4.59,1.36,2.43,1.48,2.46,4.2,.06,6.68-3.46,3.58-7.03,7.08-10.69,10.46-1.96,1.81-2.5,3.67-1.9,6.31,1.05,4.6,1.94,9.26,2.4,13.95,.17,1.71-.61,4.14-1.85,5.15-1.01,.81-3.57,.47-5.05-.21-4.42-2.01-8.69-4.35-12.92-6.73-2.22-1.25-4.08-1.11-6.28,.12-4.45,2.5-8.99,4.85-13.59,7.07-3.09,1.48-6.29-.59-6.32-3.95Z"/></svg>