<?xml version="1.0" encoding="UTF-8"?><svg id="Icons" xmlns="http://www.w3.org/2000/svg" viewBox="0 0 32.1 27.6"><defs><style>.cls-1{fill:none;stroke:#492300;stroke-linecap:round;stroke-linejoin:round;stroke-width:2px;}</style></defs><path class="cls-1" d="M30.1,2c-1.1,.7-2.2,1.3-3.6,1.6-1.75-2.33-5.19-3.39-8.48-1.94-2.45,1.08-3.92,3.62-3.92,6.3,0,.41,0,.82,.1,1.23-4.4-.7-8.3-3-11-6.4-.5,.9-.8,2-.8,3.2,0,2.2,1.1,4.1,2.7,5.2-1,0-2-.3-2.8-.8v.1c0,3.1,2.1,5.6,4.9,6.2-.5,.1-1.1,.2-1.6,.2-.4,0-.8,0-1.2-.1,.8,2.5,3,4.3,5.7,4.4-2.1,1.7-4.8,2.7-7.6,2.7-.5,0-1,0-1.5-.1,2.7,1.8,5.9,2.8,9.4,2.8,11.2,0,17.4-9.5,17.5-17.8l3.2-1.8-3-1,2-4Z"/></svg>