<?xml version="1.0" encoding="UTF-8"?><svg id="_ар_1" xmlns="http://www.w3.org/2000/svg" viewBox="0 0 384 269.06"><defs><style>.cls-1{fill:#492300;}</style></defs><path class="cls-1" d="M384,67.77V201.28c-.89,3.98-1.61,8.01-2.69,11.95-9.23,33.55-38.49,55.6-74.23,55.72-36.11,.12-72.22,.04-108.33,.03-41.73-.01-83.47,.27-125.19-.17-33.05-.35-61.75-23.04-70.65-54.86-1.17-4.17-1.95-8.44-2.91-12.67V67.77c.61-2.9,1.16-5.81,1.84-8.7C10.06,23.79,39.95,.23,76.92,.1c32.11-.11,64.22-.03,96.34-.02,45.73,0,91.47-.27,137.19,.17,34.15,.33,63.5,24.51,71.4,57.75,.77,3.24,1.43,6.51,2.14,9.77h0ZM191.61,246.47c38.61,0,77.22,.1,115.84-.03,31-.11,54.01-23.24,54.04-54.08,.04-38.62,.04-77.23-.04-115.85,0-3.97-.34-8.02-1.18-11.89-5.51-25.18-26.38-41.9-52.61-42.01-33.74-.14-67.48-.04-101.22-.04-43.86,0-87.72-.22-131.58,.12-29.41,.22-52.29,23.71-52.34,53.05-.08,39.24-.05,78.48,.03,117.72,0,3.6,.36,7.26,1.11,10.78,5.43,25.25,26.49,42.12,52.86,42.2,38.36,.11,76.72,.03,115.09,.03h0Z"/><path class="cls-1" d="M143.41,133.59c0-19.86,.03-39.73-.02-59.59,0-5.15,1.6-9.34,6.4-11.78,4.54-2.3,8.61-.97,12.67,1.59,26.49,16.72,53.04,33.36,79.56,50.03,5.71,3.59,11.44,7.13,17.09,10.81,8.1,5.28,8.22,14.86,.04,19.9-32.62,20.09-65.3,40.1-98.03,60.01-8.57,5.21-17.62-.08-17.67-10.25-.11-20.24-.03-40.48-.03-60.72h0Zm89.15,.9c-22.43-14.1-44.2-27.79-66.41-41.75v82.41c22.2-13.6,43.96-26.92,66.41-40.67h0Z"/></svg>